<svg width="736" height="304" viewBox="0 0 736 304" fill="none" xmlns="http://www.w3.org/2000/svg">
<mask id="mask0_60803_698" style="mask-type:luminance" maskUnits="userSpaceOnUse" x="0" y="0" width="736" height="304">
<path d="M736 0.666626H0V303.333H736V0.666626Z" fill="white"/>
</mask>
<g mask="url(#mask0_60803_698)">
<mask id="mask1_60803_698" style="mask-type:luminance" maskUnits="userSpaceOnUse" x="52" y="0" width="276" height="270">
<path d="M52 0.71875H328V270H52V0.71875Z" fill="white"/>
</mask>
<g mask="url(#mask1_60803_698)">
<mask id="mask2_60803_698" style="mask-type:luminance" maskUnits="userSpaceOnUse" x="52" y="0" width="276" height="270">
<path d="M328 0.666626H52V270H328V0.666626Z" fill="white"/>
</mask>
<g mask="url(#mask2_60803_698)">
<mask id="mask3_60803_698" style="mask-type:luminance" maskUnits="userSpaceOnUse" x="52" y="32" width="128" height="184">
<path d="M52.6406 32.6666H180V215.333H52.6406V32.6666Z" fill="white"/>
</mask>
<g mask="url(#mask3_60803_698)">
<path d="M118.606 32.7412C139.116 32.7412 155.981 43.3818 169.189 64.6579C170.866 68.1891 172.132 73.611 172.981 80.9287C171.882 91.9443 169.986 99.4235 167.293 103.366C158.72 119.606 143.715 131.293 122.272 138.429C99.5641 150.127 87.0745 155.97 84.8141 155.97C84.1318 155.97 81.1891 156.179 75.9808 156.595C75.2152 155.512 74.835 154.882 74.835 154.7V152.825C79.3766 146.257 89.5954 137.09 105.502 125.325C114.668 116.241 119.252 107.71 119.252 99.7204C119.835 99.7204 120.252 94.7152 120.502 84.6995C118.986 60.9079 116.882 49.012 114.189 49.012C111.241 45.236 109.772 42.1266 109.772 39.6787C109.772 35.0537 112.715 32.7412 118.606 32.7412ZM92.2516 35.262C95.1943 35.262 96.6683 37.5329 96.6683 42.0745C96.6683 42.9235 94.7725 45.4443 90.9808 49.637V53.4287C90.9808 54.861 94.1318 59.0225 100.439 65.9079C102.549 71.9652 103.606 75.2933 103.606 75.887C98.8975 88.835 94.1058 95.3037 89.2308 95.3037C87.4495 97.4027 84.9235 98.4495 81.6475 98.4495H76.6058C69.1162 98.4495 62.0537 92.8193 55.4183 81.5537C54.585 78.611 54.1683 76.0902 54.1683 73.9912C54.1683 55.9912 65.8558 43.2933 89.2308 35.887C90.5641 35.887 91.5693 35.6787 92.2516 35.262ZM172.981 154.075C177.174 155.507 179.272 158.616 179.272 163.408V168.45C179.272 178.632 173.845 189.903 163.002 202.262C153.752 210.168 143.533 214.116 132.356 214.116C128.825 214.116 116.929 211.007 96.6683 204.783C88.6787 202.689 81.9912 201.637 76.6058 201.637H71.6891C69.9235 201.637 65.9704 203.908 59.835 208.45H58.5641C54.7829 208.45 52.8975 205.965 52.8975 200.991C52.8975 192.924 58.9495 183.132 71.0641 171.616C80.3141 165.981 90.3193 162.611 101.085 161.512C120.502 163.543 134.877 165.856 144.21 168.45H157.96C162.252 168.45 165.361 165.132 167.293 158.491C169.569 155.715 171.465 154.241 172.981 154.075Z" fill="white"/>
</g>
<path d="M255.703 32.7412C276.214 32.7412 293.078 43.3818 306.287 64.6579C307.964 68.1891 309.229 73.611 310.078 80.9287C308.979 91.9443 307.084 99.4235 304.391 103.366C295.818 119.606 280.813 131.293 259.37 138.429C236.662 150.127 224.172 155.97 221.912 155.97C221.229 155.97 218.287 156.179 213.078 156.595C212.313 155.512 211.933 154.882 211.933 154.7V152.825C216.474 146.257 226.693 137.09 242.599 125.325C251.766 116.241 256.349 107.71 256.349 99.7204C256.933 99.7204 257.349 94.7152 257.599 84.6995C256.084 60.9079 253.979 49.012 251.287 49.012C248.339 45.236 246.87 42.1266 246.87 39.6787C246.87 35.0537 249.813 32.7412 255.703 32.7412ZM229.349 35.262C232.292 35.262 233.766 37.5329 233.766 42.0745C233.766 42.9235 231.87 45.4443 228.078 49.637V53.4287C228.078 54.861 231.229 59.0225 237.537 65.9079C239.646 71.9652 240.703 75.2933 240.703 75.887C235.995 88.835 231.203 95.3037 226.328 95.3037C224.547 97.4027 222.021 98.4495 218.745 98.4495H213.703C206.214 98.4495 199.151 92.8193 192.516 81.5537C191.683 78.611 191.266 76.0902 191.266 73.9912C191.266 55.9912 202.953 43.2933 226.328 35.887C227.662 35.887 228.667 35.6787 229.349 35.262ZM310.078 154.075C314.271 155.507 316.37 158.616 316.37 163.408V168.45C316.37 178.632 310.943 189.903 300.099 202.262C290.849 210.168 280.631 214.116 269.453 214.116C265.922 214.116 254.026 211.007 233.766 204.783C225.776 202.689 219.089 201.637 213.703 201.637H208.787C207.021 201.637 203.068 203.908 196.933 208.45H195.662C191.881 208.45 189.995 205.965 189.995 200.991C189.995 192.924 196.047 183.132 208.162 171.616C217.412 165.981 227.417 162.611 238.183 161.512C257.599 163.543 271.974 165.856 281.308 168.45H295.058C299.349 168.45 302.459 165.132 304.391 158.491C306.667 155.715 308.563 154.241 310.078 154.075Z" fill="white"/>
</g>
</g>
<path d="M602.417 278.286L723.25 278.286" stroke="white" stroke-width="22.5313"/>
<path d="M221.156 278.286H156.557" stroke="white" stroke-width="13.5188"/>
<mask id="mask4_60803_698" style="mask-type:luminance" maskUnits="userSpaceOnUse" x="118" y="254" width="39" height="48">
<path d="M118.948 254.63H156.563V301.938H118.948V254.63Z" fill="white"/>
</mask>
<g mask="url(#mask4_60803_698)">
<mask id="mask5_60803_698" style="mask-type:luminance" maskUnits="userSpaceOnUse" x="118" y="254" width="40" height="48">
<path d="M157.334 254H118.667V302H157.334V254Z" fill="white"/>
</mask>
<g mask="url(#mask5_60803_698)">
<mask id="mask6_60803_698" style="mask-type:luminance" maskUnits="userSpaceOnUse" x="118" y="254" width="39" height="48">
<path d="M118.948 254.63H156.563V301.937H118.948V254.63Z" fill="white"/>
</mask>
<g mask="url(#mask6_60803_698)">
<path d="M156.563 301.937H118.948V254.63H156.563V301.937Z" fill="white"/>
</g>
</g>
</g>
<path d="M514.839 278.286H579.433" stroke="white" stroke-width="13.5188"/>
<mask id="mask7_60803_698" style="mask-type:luminance" maskUnits="userSpaceOnUse" x="579" y="254" width="39" height="48">
<path d="M579.433 254.635H617.047V301.943H579.433V254.635Z" fill="white"/>
</mask>
<g mask="url(#mask7_60803_698)">
<mask id="mask8_60803_698" style="mask-type:luminance" maskUnits="userSpaceOnUse" x="578" y="254" width="40" height="48">
<path d="M617.334 254H578.667V302H617.334V254Z" fill="white"/>
</mask>
<g mask="url(#mask8_60803_698)">
<mask id="mask9_60803_698" style="mask-type:luminance" maskUnits="userSpaceOnUse" x="579" y="254" width="39" height="48">
<path d="M579.433 254.635H617.047V301.943H579.433V254.635Z" fill="white"/>
</mask>
<g mask="url(#mask9_60803_698)">
<path d="M579.433 254.635H617.047V301.943H579.433V254.635Z" fill="white"/>
</g>
</g>
</g>
<path d="M133.578 278.286L12.7447 278.286" stroke="white" stroke-width="22.5313"/>
<mask id="mask10_60803_698" style="mask-type:luminance" maskUnits="userSpaceOnUse" x="233" y="258" width="270" height="39">
<path d="M502.666 258H233.333V296.667H502.666V258Z" fill="white"/>
</mask>
<g mask="url(#mask10_60803_698)">
<path d="M250.913 272.435C250.913 273.493 250.668 274.456 250.184 275.331C249.694 276.206 248.954 276.915 247.954 277.456C246.954 277.987 245.71 278.248 244.225 278.248H241.496V284.769H237.059V266.581H244.225C245.684 266.581 246.913 266.842 247.913 267.352C248.913 267.852 249.663 268.54 250.163 269.415C250.663 270.29 250.913 271.3 250.913 272.435ZM243.892 274.727C244.736 274.727 245.371 274.534 245.788 274.144C246.204 273.743 246.413 273.175 246.413 272.435C246.413 271.717 246.204 271.159 245.788 270.769C245.371 270.368 244.736 270.165 243.892 270.165H241.496V274.727H243.892Z" fill="white"/>
<path d="M257.66 270.144V273.81H263.577V277.227H257.66V281.227H264.368V284.769H253.223V266.581H264.368V270.144H257.66Z" fill="white"/>
<path d="M276.507 284.769L272.736 277.915H271.674V284.769H267.236V266.581H274.674C276.101 266.581 277.32 266.842 278.32 267.352C279.33 267.852 280.09 268.54 280.59 269.415C281.09 270.279 281.34 271.243 281.34 272.31C281.34 273.519 280.997 274.602 280.32 275.56C279.637 276.508 278.637 277.175 277.32 277.56L281.507 284.769H276.507ZM271.674 274.769H274.403C275.221 274.769 275.83 274.576 276.236 274.185C276.637 273.784 276.84 273.222 276.84 272.498C276.84 271.805 276.637 271.264 276.236 270.873C275.83 270.472 275.221 270.269 274.403 270.269H271.674V274.769Z" fill="white"/>
<path d="M290.709 284.956C289.375 284.956 288.177 284.743 287.125 284.31C286.068 283.883 285.229 283.243 284.604 282.394C283.979 281.55 283.646 280.529 283.604 279.331H288.313C288.381 279.998 288.615 280.514 289.021 280.873C289.422 281.222 289.943 281.394 290.584 281.394C291.235 281.394 291.75 281.248 292.125 280.956C292.5 280.654 292.688 280.227 292.688 279.685C292.688 279.243 292.532 278.873 292.229 278.581C291.938 278.29 291.568 278.05 291.125 277.852C290.693 277.659 290.068 277.446 289.25 277.206C288.084 276.847 287.125 276.487 286.375 276.123C285.636 275.764 285 275.227 284.459 274.519C283.927 273.81 283.667 272.889 283.667 271.748C283.667 270.055 284.276 268.727 285.5 267.769C286.719 266.81 288.318 266.331 290.292 266.331C292.292 266.331 293.901 266.81 295.125 267.769C296.36 268.727 297.021 270.06 297.104 271.769H292.313C292.271 271.185 292.047 270.727 291.646 270.394C291.256 270.05 290.75 269.873 290.125 269.873C289.594 269.873 289.167 270.019 288.834 270.31C288.511 270.592 288.354 270.998 288.354 271.54C288.354 272.123 288.625 272.581 289.167 272.915C289.719 273.237 290.589 273.592 291.771 273.977C292.938 274.368 293.886 274.743 294.625 275.102C295.36 275.467 295.99 275.993 296.521 276.685C297.063 277.383 297.334 278.269 297.334 279.352C297.334 280.394 297.068 281.342 296.542 282.185C296.011 283.034 295.25 283.706 294.25 284.206C293.25 284.706 292.068 284.956 290.709 284.956Z" fill="white"/>
<path d="M308.661 284.956C306.952 284.956 305.38 284.56 303.952 283.769C302.536 282.967 301.4 281.852 300.557 280.435C299.723 279.008 299.307 277.404 299.307 275.623C299.307 273.847 299.723 272.248 300.557 270.831C301.4 269.415 302.536 268.31 303.952 267.519C305.38 266.727 306.952 266.331 308.661 266.331C310.369 266.331 311.932 266.727 313.348 267.519C314.775 268.31 315.9 269.415 316.723 270.831C317.541 272.248 317.952 273.847 317.952 275.623C317.952 277.404 317.536 279.008 316.702 280.435C315.88 281.852 314.765 282.967 313.348 283.769C311.932 284.56 310.369 284.956 308.661 284.956ZM308.661 280.915C310.104 280.915 311.265 280.435 312.14 279.477C313.015 278.508 313.452 277.222 313.452 275.623C313.452 274.029 313.015 272.748 312.14 271.79C311.265 270.831 310.104 270.352 308.661 270.352C307.187 270.352 306.015 270.826 305.14 271.769C304.275 272.717 303.848 273.998 303.848 275.623C303.848 277.237 304.275 278.519 305.14 279.477C306.015 280.435 307.187 280.915 308.661 280.915Z" fill="white"/>
<path d="M336.687 284.769H332.249L324.854 273.56V284.769H320.416V266.581H324.854L332.249 277.852V266.581H336.687V284.769Z" fill="white"/>
<path d="M351.209 281.56H344.438L343.334 284.769H338.709L345.292 266.581H350.417L356.98 284.769H352.292L351.209 281.56ZM350.084 278.144L347.813 271.477L345.605 278.144H350.084Z" fill="white"/>
<path d="M363.425 281.352H369.216V284.769H358.987V266.581H363.425V281.352Z" fill="white"/>
<path d="M389.918 266.581V270.144H385.105V284.769H380.668V270.144H375.855V266.581H389.918Z" fill="white"/>
<path d="M401.414 284.769L397.644 277.915H396.581V284.769H392.144V266.581H399.581C401.008 266.581 402.227 266.842 403.227 267.352C404.237 267.852 404.998 268.54 405.498 269.415C405.998 270.279 406.248 271.243 406.248 272.31C406.248 273.519 405.904 274.602 405.227 275.56C404.545 276.508 403.545 277.175 402.227 277.56L406.414 284.769H401.414ZM396.581 274.769H399.31C400.128 274.769 400.737 274.576 401.144 274.185C401.545 273.784 401.748 273.222 401.748 272.498C401.748 271.805 401.545 271.264 401.144 270.873C400.737 270.472 400.128 270.269 399.31 270.269H396.581V274.769Z" fill="white"/>
<path d="M420.346 281.56H413.575L412.471 284.769H407.846L414.429 266.581H419.554L426.117 284.769H421.429L420.346 281.56ZM419.221 278.144L416.95 271.477L414.742 278.144H419.221Z" fill="white"/>
<path d="M432.562 266.581V284.769H428.124V266.581H432.562Z" fill="white"/>
<path d="M452.036 284.769H447.599L440.203 273.56V284.769H435.766V266.581H440.203L447.599 277.852V266.581H452.036V284.769Z" fill="white"/>
<path d="M459.683 266.581V284.769H455.245V266.581H459.683Z" fill="white"/>
<path d="M479.158 284.769H474.72L467.324 273.56V284.769H462.887V266.581H467.324L474.72 277.852V266.581H479.158V284.769Z" fill="white"/>
<path d="M494.429 272.331C494.106 271.737 493.637 271.279 493.012 270.956C492.397 270.638 491.684 270.477 490.866 270.477C489.434 270.477 488.283 270.951 487.408 271.894C486.543 272.826 486.116 274.076 486.116 275.644C486.116 277.326 486.564 278.638 487.47 279.581C488.387 280.529 489.637 280.998 491.22 280.998C492.304 280.998 493.22 280.722 493.97 280.165C494.731 279.612 495.283 278.81 495.616 277.769H490.012V274.519H499.637V278.623C499.314 279.737 498.762 280.769 497.97 281.727C497.179 282.675 496.179 283.435 494.97 284.019C493.762 284.602 492.397 284.894 490.887 284.894C489.095 284.894 487.491 284.508 486.075 283.727C484.668 282.935 483.575 281.847 482.783 280.456C482.002 279.055 481.616 277.451 481.616 275.644C481.616 273.852 482.002 272.258 482.783 270.852C483.575 269.451 484.663 268.352 486.054 267.56C487.455 266.769 489.059 266.373 490.866 266.373C493.033 266.373 494.856 266.904 496.345 267.956C497.845 269.013 498.835 270.472 499.325 272.331H494.429Z" fill="white"/>
</g>
<mask id="mask11_60803_698" style="mask-type:luminance" maskUnits="userSpaceOnUse" x="317" y="18" width="391" height="212">
<path d="M708 18H317.333V230H708V18Z" fill="white"/>
</mask>
<g mask="url(#mask11_60803_698)">
<path d="M345.633 112.89C341.425 110.306 337.675 107.088 334.383 103.223C331.102 99.3481 328.883 95.5356 327.717 91.7856C326.769 89.2179 326.238 86.296 326.113 83.0147C325.998 79.7231 326.3 76.7856 327.008 74.2022C327.951 71.6345 329.243 68.7126 330.883 65.4314C332.519 62.1397 334.394 59.2126 336.508 56.6397C340.258 51.947 344.415 48.197 348.988 45.3897C353.555 42.572 358.998 40.3429 365.321 38.7022C368.613 37.7751 372.951 37.1918 378.342 36.9522C383.727 36.7179 388.415 36.8376 392.404 37.3064C395.206 37.7647 398.488 38.3481 402.238 39.0564C405.988 39.7647 409.154 40.5876 411.738 41.5147L414.904 42.5772L419.113 39.7647C427.79 33.9054 436.29 29.5095 444.613 26.5772C452.93 23.6501 460.488 22.1814 467.279 22.1814H470.092C473.368 22.421 476.06 22.7751 478.175 23.2439C480.284 23.7022 482.633 24.5251 485.217 25.7022C495.519 31.0929 500.79 39.6501 501.029 51.3689C501.264 55.3429 500.852 59.2022 499.8 62.9522C498.743 66.7022 496.93 70.8064 494.363 75.2647C481.456 97.296 459.779 112.411 429.321 120.619C416.889 123.9 404.93 125.536 393.446 125.536C381.972 125.536 371.55 123.9 362.175 120.619L356.883 118.869L354.425 123.431C350.435 130.697 347.097 138.025 344.404 145.411C341.706 152.786 339.779 159.64 338.613 165.973C338.139 168.78 337.956 172.411 338.071 176.869C338.196 181.327 338.493 184.494 338.967 186.369C340.602 192.452 343.644 197.661 348.092 201.994C352.55 206.338 358.18 209.687 364.988 212.036C371.305 214.129 378.8 214.598 387.467 213.431C396.144 212.265 405.227 209.687 414.717 205.702C424.217 201.713 433.826 196.437 443.55 189.869C453.269 183.312 462.352 175.817 470.8 167.369C473.144 165.036 476.196 161.822 479.946 157.723C483.696 153.614 487.498 149.338 491.363 144.89C495.238 140.431 499.05 135.973 502.8 131.515C506.55 127.056 509.826 123.192 512.633 119.911C514.977 116.4 516.154 115.577 516.154 117.452C516.154 117.926 515.269 119.39 513.508 121.848C511.758 124.306 507.831 129.286 501.738 136.786C498.696 140.536 495.998 143.76 493.654 146.452C491.305 149.15 489.133 151.614 487.133 153.848C485.144 156.072 483.154 158.239 481.154 160.348C479.165 162.463 477.008 164.801 474.675 167.369C469.977 172.067 465.993 175.879 462.717 178.806C459.435 181.733 455.451 184.838 450.758 188.119C438.102 197.728 425.56 205.056 413.133 210.098C400.717 215.14 389.238 217.541 378.696 217.306C375.18 217.306 372.488 217.067 370.613 216.598C365.206 215.65 359.748 213.661 354.238 210.619C348.738 207.577 344.227 204.062 340.717 200.077C334.852 192.812 331.925 184.02 331.925 173.702C331.925 163.161 334.269 151.796 338.967 139.598C339.435 138.671 340.081 137.15 340.904 135.036C341.722 132.926 342.659 130.76 343.717 128.536C344.769 126.301 345.883 124.015 347.05 121.681C348.217 119.338 349.154 117.463 349.863 116.056L348.8 114.994C348.342 114.525 347.81 114.171 347.217 113.931C346.633 113.697 346.102 113.348 345.633 112.89ZM415.258 51.0147C407.758 56.8793 400.665 63.2022 393.988 69.9939C387.305 76.7856 381.034 83.9314 375.175 91.4314C373.534 93.546 371.717 96.0095 369.717 98.8272C367.727 101.635 365.915 104.327 364.279 106.911C362.639 109.483 361.29 111.702 360.238 113.577C359.18 115.452 358.654 116.51 358.654 116.744C358.654 116.983 359.472 117.4 361.113 117.994C362.748 118.577 364.743 119.161 367.092 119.744C369.435 120.327 371.956 120.911 374.654 121.494C377.347 122.077 379.748 122.489 381.863 122.723C382.79 122.723 384.43 122.786 386.779 122.911C389.123 123.025 391.581 123.077 394.154 123.077C396.738 123.077 399.258 123.025 401.717 122.911C404.175 122.786 406.102 122.608 407.508 122.369C416.659 121.202 425.623 119.338 434.404 116.765C443.196 114.181 450.873 111.015 457.446 107.265C461.889 104.681 465.748 102.161 469.029 99.7022C472.321 97.2439 475.842 94.2595 479.592 90.7439C484.977 85.3429 489.139 80.1293 492.071 75.0981C494.998 70.0564 497.05 64.8429 498.217 59.4522C498.685 56.4001 498.925 54.0512 498.925 52.4106C498.925 50.7751 498.685 48.6606 498.217 46.0772C497.05 39.7595 494.118 34.7856 489.425 31.1606C484.743 27.5251 478.998 25.7022 472.196 25.7022C466.113 25.7022 459.321 27.0512 451.821 29.7439C444.321 32.4418 436.581 36.3637 428.613 41.5147L422.633 45.3897L427.196 47.8481C440.097 53.947 448.425 61.2126 452.175 69.6397C452.633 71.2804 452.743 72.0981 452.508 72.0981C452.284 72.0981 451.821 71.2804 451.113 69.6397C449.946 67.5304 448.305 65.3064 446.196 62.9731C444.081 60.6293 441.852 58.5147 439.508 56.6397C437.394 55.0043 434.29 53.1293 430.196 51.0147C426.097 48.9054 423.342 47.6137 421.925 47.1397C421.467 46.9054 420.764 47.0251 419.821 47.4939C418.889 47.9679 417.368 49.1397 415.258 51.0147ZM339.321 63.3064C328.305 78.546 328.425 92.2595 339.675 104.452C341.769 106.786 344.222 108.89 347.029 110.765C349.847 112.64 351.373 113.348 351.613 112.89C351.847 112.655 352.373 111.838 353.196 110.431C354.014 109.015 355.014 107.369 356.196 105.494C359.706 99.8689 363.222 94.7179 366.738 90.0356C370.248 85.3429 374.467 80.3012 379.383 74.9106C381.493 72.5668 383.894 69.9887 386.592 67.1814C389.284 64.3637 392.034 61.671 394.842 59.0981C397.659 56.5147 400.363 54.1137 402.946 51.8897C405.529 49.671 407.873 47.8481 409.988 46.4314C410.446 46.197 411.029 45.7335 411.738 45.0356L412.446 44.3272C412.446 44.0929 410.863 43.5668 407.696 42.7439C404.529 41.9262 401.425 41.2804 398.383 40.8064C397.201 40.572 395.498 40.4001 393.279 40.2856C391.055 40.1762 388.769 40.1189 386.425 40.1189C383.842 40.1189 381.55 40.1762 379.55 40.2856C377.56 40.4001 375.988 40.572 374.821 40.8064C358.889 44.322 347.055 51.822 339.321 63.3064Z" fill="#02B3BF"/>
<path d="M515.448 132.577C513.792 133.275 512.792 133.858 512.448 134.327C512.099 134.801 511.333 136.213 510.156 138.556C501.729 156.598 498.917 168.671 501.719 174.765C502.667 176.171 503.781 176.921 505.073 177.035C506.354 177.16 508.281 176.634 510.865 175.452C518.365 171.942 526.802 165.614 536.177 156.473C545.552 147.338 556.219 135.03 568.177 119.556C568.646 119.098 569.057 118.754 569.406 118.515C569.75 118.28 569.927 118.28 569.927 118.515C570.161 118.515 569.87 119.218 569.052 120.619C568.229 122.025 567.115 123.723 565.698 125.723C564.292 127.713 562.599 129.931 560.615 132.39C558.625 134.848 556.578 137.254 554.469 139.598C552.594 141.713 550.417 144.176 547.948 146.994C545.49 149.801 542.911 152.551 540.219 155.244C537.521 157.942 535 160.463 532.656 162.806C530.323 165.155 528.448 166.91 527.031 168.077C515.781 177.452 507.344 181.317 501.719 179.681C498.677 178.973 496.688 177.213 495.74 174.41C495.281 173.233 494.938 172.176 494.698 171.244C494.464 170.301 494.344 168.546 494.344 165.973C494.344 163.39 494.464 161.4 494.698 159.994C494.938 158.593 495.401 156.598 496.094 154.015C497.734 149.098 499.844 143.713 502.427 137.848C505.01 131.989 508 126.072 511.385 120.098C514.786 114.114 518.417 108.197 522.281 102.348C526.156 96.4886 530.083 91.0928 534.073 86.1605C541.333 77.2594 548.427 69.8792 555.344 64.0147C562.26 58.1553 568.057 54.6397 572.74 53.473H573.802C577.078 53.0042 579.073 54.1761 579.781 56.9938C580.474 59.0928 580.177 61.9053 578.885 65.4313C577.604 68.9469 575.557 72.9313 572.74 77.3897C569.932 81.8376 566.354 86.6344 562.01 91.7855C557.677 96.9417 552.932 102.098 547.781 107.265C542.156 113.129 536.411 118.343 530.552 122.91C524.688 127.483 519.656 130.702 515.448 132.577ZM530.552 102.327C528.911 104.91 527.094 107.905 525.094 111.306C523.104 114.697 521.229 117.858 519.469 120.785C517.719 123.718 516.313 126.181 515.26 128.181C514.203 130.171 513.792 131.16 514.031 131.16C514.5 131.16 516.021 130.343 518.594 128.702C523.995 125.426 529.802 121.15 536.01 115.869C542.219 110.593 547.896 105.14 553.052 99.5147C568.286 82.6397 576.26 69.9886 576.969 61.5563C577.661 57.3376 577.073 55.4626 575.198 55.9313C574.74 55.9313 573.802 56.2855 572.385 56.9938C569.813 58.1605 566.885 60.2126 563.594 63.1397C560.313 66.0719 556.854 69.5876 553.219 73.6813C549.594 77.7803 545.786 82.2959 541.802 87.223C537.813 92.1397 534.063 97.1761 530.552 102.327Z" fill="#02B3BF"/>
<path d="M579.414 112.89C575.425 118.973 571.732 125.067 568.331 131.161C564.94 137.26 562.195 142.765 560.081 147.681C557.039 154.254 554.873 160.176 553.581 165.452C552.289 170.718 552.227 173.588 553.393 174.056C555.05 174.53 557.748 172.89 561.498 169.14C562.43 168.197 563.831 166.733 565.706 164.744C567.581 162.744 569.456 160.635 571.331 158.411C573.206 156.192 574.961 154.025 576.602 151.911C578.237 149.801 579.414 148.275 580.123 147.327C582.94 142.885 585.05 139.489 586.456 137.14C587.857 134.796 589.498 131.983 591.373 128.702C595.357 121.911 598.695 116.525 601.393 112.536C604.086 108.551 606.018 106.556 607.185 106.556C607.893 106.556 608.711 106.848 609.643 107.431C610.586 108.015 611.175 108.546 611.414 109.015C611.883 109.489 611.711 110.317 610.893 111.494C610.07 112.661 608.133 115.588 605.081 120.265C597.341 132.223 591.248 142.775 586.789 151.911C582.341 161.051 580.003 167.848 579.768 172.306C579.768 174.405 580.237 175.452 581.185 175.452C582.352 175.233 584.279 174.129 586.977 172.14C589.669 170.14 592.425 167.733 595.248 164.911C599.232 160.926 603.102 156.53 606.852 151.723C610.602 146.921 615.399 140.536 621.248 132.577C625.94 126.244 628.987 122.202 630.393 120.452C631.794 118.692 632.498 118.275 632.498 119.202C632.498 119.442 631.383 121.14 629.164 124.306C626.94 127.473 624.3 131.114 621.248 135.223C618.206 139.322 615.102 143.536 611.935 147.869C608.768 152.202 606.248 155.546 604.373 157.89C600.623 162.572 596.987 166.614 593.477 170.015C589.961 173.421 587.149 175.702 585.039 176.869C582.706 178.27 580.362 178.504 578.018 177.577C576.378 176.869 575.32 176.108 574.852 175.286C574.378 174.468 574.143 172.885 574.143 170.536C574.143 168.661 574.487 166.26 575.185 163.327C575.893 160.4 576.716 157.879 577.664 155.765C578.373 154.129 578.544 153.546 578.185 154.015C577.836 154.489 576.024 156.718 572.748 160.702C566.883 167.968 562.32 172.775 559.039 175.119C555.748 177.452 552.701 177.916 549.893 176.515C546.602 174.64 545.55 170.598 546.727 164.39C547.893 158.181 551.409 149.098 557.268 137.14C559.852 131.754 562.664 126.483 565.706 121.327C568.758 116.161 571.227 112.296 573.102 109.723C574.268 108.322 575.081 107.447 575.539 107.098C576.008 106.739 576.602 106.556 577.31 106.556C578.477 106.556 579.466 106.796 580.289 107.265C581.123 107.723 581.539 108.306 581.539 109.015C581.539 109.489 581.3 110.015 580.831 110.598C580.357 111.181 579.883 111.947 579.414 112.89Z" fill="#02B3BF"/>
<path d="M702.109 117.452C703.052 117.452 702.995 118.046 701.943 119.223C700.886 120.39 699.359 121.796 697.359 123.431C695.37 125.072 693.089 126.775 690.505 128.536C687.932 130.286 685.594 131.634 683.484 132.577C682.302 133.275 680.656 133.973 678.547 134.681C676.448 135.39 674.693 135.973 673.276 136.431L667.651 137.848L664.839 142.411C660.156 150.619 655.057 157.655 649.547 163.515C644.047 169.379 639.068 173.009 634.609 174.411C632.734 174.884 630.62 175.067 628.276 174.952C625.943 174.827 624.188 174.53 623.005 174.056C622.537 173.588 621.891 173.119 621.068 172.661C620.25 172.192 619.609 171.718 619.151 171.244C618.443 170.301 617.917 169.364 617.568 168.431C617.208 167.489 616.912 166.077 616.672 164.202C616.672 163.275 615.974 164.681 614.568 168.431C613.875 169.838 613.234 171.129 612.651 172.306C612.057 173.473 611.521 174.296 611.047 174.765C610.12 176.405 608.359 176.754 605.776 175.806C604.609 175.114 604.146 174.296 604.38 173.348C604.62 171.947 605.734 169.077 607.734 164.744C609.724 160.411 612.005 155.489 614.589 149.973C617.162 144.463 619.974 138.718 623.026 132.744C626.068 126.775 628.87 121.442 631.443 116.744C635.901 108.551 640.412 100.822 644.984 93.5564C649.552 86.2803 653.651 79.8897 657.276 74.3897C660.912 68.8793 664.078 64.4834 666.776 61.2022C669.469 57.9261 671.287 56.2855 672.234 56.2855C672.703 56.2855 673.526 56.697 674.693 57.5147C675.859 58.3376 676.443 58.9834 676.443 59.4522C676.443 59.6918 675.557 61.1553 673.797 63.848C672.047 66.5459 669.886 69.7647 667.318 73.5147C664.969 77.0303 662.151 81.4261 658.859 86.7022C655.578 91.9678 652.359 97.1814 649.193 102.348C646.037 107.504 643.224 112.129 640.755 116.223C638.297 120.322 636.839 123.077 636.38 124.494L638.484 122.369C642.469 117.692 645.984 114.004 649.026 111.306C652.068 108.614 655.115 106.556 658.172 105.14C661.682 103.265 664.844 103.036 667.651 104.452C668.828 104.911 669.948 105.733 671.005 106.911C672.057 108.077 672.818 109.254 673.276 110.431C674.693 115.114 673.755 122.14 670.464 131.515C669.057 134.098 668.594 135.39 669.068 135.39C669.302 135.39 670.005 135.218 671.172 134.869C672.349 134.509 673.578 134.155 674.859 133.806C676.151 133.447 677.443 133.036 678.734 132.577C680.026 132.108 681.016 131.754 681.714 131.515C683.823 130.588 686.636 129.009 690.151 126.786C693.677 124.551 696.38 122.494 698.255 120.619C700.349 118.509 701.636 117.452 702.109 117.452ZM646.922 155.431C649.49 151.681 651.886 148.051 654.109 144.536C656.344 141.009 657.224 139.244 656.755 139.244C656.297 139.244 655.24 139.364 653.589 139.598C651.948 139.838 650.245 140.134 648.484 140.494C646.734 140.843 645.037 141.192 643.401 141.536C641.761 141.884 640.589 142.176 639.88 142.411C635.432 143.817 631.568 145.806 628.276 148.39C625 150.973 622.776 153.671 621.609 156.473C620.432 158.348 619.787 160.577 619.672 163.161C619.547 165.733 619.839 167.608 620.547 168.786C622.422 172.536 626.172 173.119 631.797 170.536C633.672 169.608 636.073 167.676 639.005 164.744C641.932 161.817 644.573 158.713 646.922 155.431ZM660.984 132.223C663.094 128.004 664.849 123.489 666.255 118.681C667.656 113.879 668.12 110.536 667.651 108.661C667.651 107.968 667.068 107.384 665.901 106.911C664.969 106.442 664.266 106.202 663.797 106.202C663.323 106.202 662.906 106.265 662.547 106.39C662.198 106.504 661.557 106.676 660.63 106.911C656.641 108.077 652.537 110.718 648.318 114.827C644.109 118.926 638.719 125.546 632.151 134.681C630.276 137.265 628.453 140.025 626.693 142.952C624.943 145.869 624.307 147.327 624.776 147.327C625 147.327 625.229 147.218 625.464 146.994L626.526 145.931C627.927 144.765 629.922 143.655 632.505 142.598C635.089 141.546 637.318 140.78 639.193 140.306C640.12 139.838 641.464 139.483 643.214 139.244C644.974 139.009 646.797 138.78 648.672 138.556C653.823 137.848 656.865 137.259 657.797 136.786C658.74 136.317 659.802 134.796 660.984 132.223Z" fill="#02B3BF"/>
</g>
</g>
</svg>
